<svg width="190" height="191" viewBox="0 0 190 191" fill="none" xmlns="http://www.w3.org/2000/svg">
<g filter="url(#filter0_if_289_1117)">
<path fill-rule="evenodd" clip-rule="evenodd" d="M30.2312 90.0477C30.2312 88.3143 30.2312 87.4476 30.5319 86.816C30.813 86.2254 31.1886 85.8144 31.7516 85.4814C32.3537 85.1253 33.2967 85.0403 35.1828 84.8704C61.3237 82.5156 82.1412 61.6981 84.4961 35.5572C84.666 33.6711 84.7509 32.7281 85.107 32.126C85.44 31.563 85.851 31.1874 86.4416 30.9063C87.0732 30.6056 87.9399 30.6056 89.6733 30.6056H100.578C102.312 30.6056 103.18 30.6056 103.842 30.9432C104.425 31.2401 104.899 31.7139 105.196 32.2966C105.533 32.9591 105.533 33.8245 105.533 35.5553C105.533 46.8847 105.533 60.2444 105.533 70.233C105.533 75.4322 105.533 78.0318 106.546 80.0193C107.437 81.7676 108.858 83.1889 110.606 84.0797C112.594 85.0924 115.196 85.0924 120.399 85.0924H155.065C156.799 85.0924 157.666 85.0924 158.329 85.43C158.912 85.7269 159.386 86.2007 159.682 86.7834C160.02 87.4459 160.02 88.3132 160.02 90.0477V100.952C160.02 102.686 160.02 103.552 159.719 104.184C159.438 104.775 159.063 105.186 158.5 105.519C157.898 105.875 156.954 105.96 155.068 106.13C128.928 108.484 108.11 129.302 105.755 155.443C105.585 157.329 105.5 158.272 105.144 158.874C104.811 159.437 104.4 159.813 103.81 160.094C103.178 160.394 102.311 160.394 100.578 160.394H89.6733C87.9388 160.394 87.0716 160.394 86.409 160.057C85.8263 159.76 85.3525 159.286 85.0556 158.703C84.718 158.041 84.718 157.175 84.718 155.445C84.718 144.115 84.718 130.756 84.718 120.767C84.718 115.568 84.718 112.968 83.7053 110.981C82.8146 109.232 81.3932 107.811 79.6449 106.92C77.6574 105.908 75.0556 105.908 69.8521 105.908H35.1865C33.452 105.908 32.5847 105.908 31.9222 105.57C31.3395 105.273 30.8657 104.799 30.5688 104.217C30.2312 103.554 30.2312 102.687 30.2312 100.952V90.0477Z" fill="url(#paint0_linear_289_1117)"/>
</g>
<g filter="url(#filter1_i_289_1117)">
<path fill-rule="evenodd" clip-rule="evenodd" d="M30.2312 90.0477C30.2312 88.3143 30.2312 87.4476 30.5319 86.816C30.813 86.2254 31.1886 85.8144 31.7516 85.4814C32.3537 85.1253 33.2967 85.0403 35.1828 84.8704C61.3237 82.5156 82.1412 61.6981 84.4961 35.5572C84.666 33.6711 84.7509 32.7281 85.107 32.126C85.44 31.563 85.851 31.1874 86.4416 30.9063C87.0732 30.6056 87.9399 30.6056 89.6733 30.6056H100.578C102.312 30.6056 103.18 30.6056 103.842 30.9432C104.425 31.2401 104.899 31.7139 105.196 32.2966C105.533 32.9591 105.533 33.8245 105.533 35.5553C105.533 46.8847 105.533 60.2444 105.533 70.233C105.533 75.4322 105.533 78.0318 106.546 80.0193C107.437 81.7676 108.858 83.1889 110.606 84.0797C112.594 85.0924 115.196 85.0924 120.399 85.0924H155.065C156.799 85.0924 157.666 85.0924 158.329 85.43C158.912 85.7269 159.386 86.2007 159.682 86.7834C160.02 87.4459 160.02 88.3132 160.02 90.0477V100.952C160.02 102.686 160.02 103.552 159.719 104.184C159.438 104.775 159.063 105.186 158.5 105.519C157.898 105.875 156.954 105.96 155.068 106.13C128.928 108.484 108.11 129.302 105.755 155.443C105.585 157.329 105.5 158.272 105.144 158.874C104.811 159.437 104.4 159.813 103.81 160.094C103.178 160.394 102.311 160.394 100.578 160.394H89.6733C87.9388 160.394 87.0716 160.394 86.409 160.057C85.8263 159.76 85.3525 159.286 85.0556 158.703C84.718 158.041 84.718 157.175 84.718 155.445C84.718 144.115 84.718 130.756 84.718 120.767C84.718 115.568 84.718 112.968 83.7053 110.981C82.8146 109.232 81.3932 107.811 79.6449 106.92C77.6574 105.908 75.0556 105.908 69.8521 105.908H35.1865C33.452 105.908 32.5847 105.908 31.9222 105.57C31.3395 105.273 30.8657 104.799 30.5688 104.217C30.2312 103.554 30.2312 102.687 30.2312 100.952V90.0477Z" fill="url(#paint1_linear_289_1117)"/>
</g>
<defs>
<filter id="filter0_if_289_1117" x="0.478617" y="0.853006" width="189.294" height="189.294" filterUnits="userSpaceOnUse" color-interpolation-filters="sRGB">
<feFlood flood-opacity="0" result="BackgroundImageFix"/>
<feBlend mode="normal" in="SourceGraphic" in2="BackgroundImageFix" result="shape"/>
<feColorMatrix in="SourceAlpha" type="matrix" values="0 0 0 0 0 0 0 0 0 0 0 0 0 0 0 0 0 0 127 0" result="hardAlpha"/>
<feOffset/>
<feGaussianBlur stdDeviation="9.91753"/>
<feComposite in2="hardAlpha" operator="arithmetic" k2="-1" k3="1"/>
<feColorMatrix type="matrix" values="0 0 0 0 1 0 0 0 0 1 0 0 0 0 1 0 0 0 1 0"/>
<feBlend mode="normal" in2="shape" result="effect1_innerShadow_289_1117"/>
<feGaussianBlur stdDeviation="14.8763" result="effect2_foregroundBlur_289_1117"/>
</filter>
<filter id="filter1_i_289_1117" x="30.2312" y="30.6056" width="129.789" height="129.789" filterUnits="userSpaceOnUse" color-interpolation-filters="sRGB">
<feFlood flood-opacity="0" result="BackgroundImageFix"/>
<feBlend mode="normal" in="SourceGraphic" in2="BackgroundImageFix" result="shape"/>
<feColorMatrix in="SourceAlpha" type="matrix" values="0 0 0 0 0 0 0 0 0 0 0 0 0 0 0 0 0 0 127 0" result="hardAlpha"/>
<feOffset/>
<feGaussianBlur stdDeviation="9.91753"/>
<feComposite in2="hardAlpha" operator="arithmetic" k2="-1" k3="1"/>
<feColorMatrix type="matrix" values="0 0 0 0 1 0 0 0 0 1 0 0 0 0 1 0 0 0 1 0"/>
<feBlend mode="normal" in2="shape" result="effect1_innerShadow_289_1117"/>
</filter>
<linearGradient id="paint0_linear_289_1117" x1="95.1256" y1="20.527" x2="95.1256" y2="160.394" gradientUnits="userSpaceOnUse">
<stop stop-color="#99F0FA"/>
<stop offset="0.555" stop-color="#F4F5AC"/>
<stop offset="1" stop-color="#EDEDED"/>
</linearGradient>
<linearGradient id="paint1_linear_289_1117" x1="95.1256" y1="20.527" x2="95.1256" y2="160.394" gradientUnits="userSpaceOnUse">
<stop stop-color="#99F0FA"/>
<stop offset="0.555" stop-color="#F4F5AC"/>
<stop offset="1" stop-color="#EDEDED"/>
</linearGradient>
</defs>
</svg>
